# xmcd
#
# Track frame offsets: 
#        150
#        29119
#        68415
#        110615
#        139134
#        161375
#        189451
#        216249
#        246585
#        277873
#        304877
#
# Disc length: 4485 seconds
#
# Revision: 0
# Processed by: cddbd v1.5.2PL0 Copyright (c) Steve Scherf et al.
# Submitted via: ExactAudioCopy v1.0b1
#
DISCID=a211830b
DTITLE=Juno Reactor - Inside The Reactor
DYEAR=2011
DGENRE=Electronic
TTITLE0=Navras (Midival Punditz Remix)
TTITLE1=Conga Fury (Ace Ventura Remix)
TTITLE2=Rotorblade (Perfect Stranger Remix)
TTITLE3=Mona Lisa Overdrive (Thomas P Heckmann Remix)
TTITLE4=Zwara (Thomas P Karni Remix)
TTITLE5=Pistolero (Bombay Dub Orchestra Remix)
TTITLE6=Hotaka (Uber Tmar Remix)
TTITLE7=Children of the Night (Soundvandal Remix)
TTITLE8=The Heavens (Juno Reactor Lost 1995 Mix)
TTITLE9=Guardian Angel (Dino Psaras Remix)
TTITLE10=Navras (Jayant Remix)
EXTD=
EXTT0=
EXTT1=
EXTT2=
EXTT3=
EXTT4=
EXTT5=
EXTT6=
EXTT7=
EXTT8=
EXTT9=
EXTT10=
PLAYORDER=
